classDiagram
    class ReprodutorMusical {
        +tocar()void
        +pausar()void
        +selecionarMusica()void
    }

    class AparelhoTelefonico {
        +ligar(numero: String)void
        +atender()void
        +correioVoz()void
    }

    class NavegadorInternet {
        +exibirPagina(url: String) void
        +addNovaAba(url: String) void
    }

    class iPhone {
    }

    iPhone --> ReprodutorMusical
    iPhone --> AparelhoTelefonico
    iPhone --> NavegadorInternet
